# xmcd
#
# Track frame offsets:
#	225
#	14725
#	29013
#	45105
#	60524
#	70891
#	87581
#	100640
#	113423
#	126508
#
# Disc length: 1873 seconds
#
# Revision: 0
# Processed by: cddbd v1.5PL3 Copyright (c) Steve Scherf et al.
# Submitted via: dBpowerAMP V4.0
#
DISCID=81074e0a
DTITLE=Bernardo y Sus Compadres - Dále Shine!
DYEAR=1997
DGENRE=Latin
TTITLE0=La Cama De Piedra
TTITLE1=Dále Shine!
TTITLE2=Mi Carcachita
TTITLE3=Como Un Rey
TTITLE4=Con Ganas
TTITLE5=El Nuevo Caimán
TTITLE6=No Me Debes Ni Te Debo
TTITLE7=Deja Esa Copa
TTITLE8=Cantinero
TTITLE9=Las Isabeles
EXTD=
EXTT0=
EXTT1=
EXTT2=
EXTT3=
EXTT4=
EXTT5=
EXTT6=
EXTT7=
EXTT8=
EXTT9=
PLAYORDER=
